<svg xmlns="http://www.w3.org/2000/svg" width="256" height="256" viewBox="28 28 228 228"><defs>
    <pattern id="pixel-grid" x="76" y="52" width="10" height="10" patternUnits="userSpaceOnUse">
      <path d="M10 0H0V10" fill="none" stroke="#FFFFFF" stroke-opacity="0.18" stroke-width="0.65"></path>
    </pattern>
    <clipPath id="pencil-grid-clip">
      <use href="#pencil-body"></use>
    </clipPath>
  </defs><path id="pencil-body" clip-rule="evenodd" data-part="body" fill="#55baac" fill-rule="evenodd" d="M76 52H144C186 52 208 80 208 118S186 184 144 184H116V222L96 248L76 222ZM116 92V144H140C157 144 168 134 168 118S157 92 140 92Z"></path><path data-part="upper" fill="#258e83" d="M76 52H116V92H76Z"></path><path data-part="middle" fill="#86d5c6" d="M76 92H116V144H76Z"></path><path data-part="lower" fill="#45afa0" d="M76 144H116V184H76Z"></path><path data-part="point" fill="#29978a" d="M76 184H116V222L96 248L76 222Z"></path><rect data-detail="grid" x="28" y="28" width="228" height="228" fill="url(#pixel-grid)" clip-path="url(#pencil-grid-clip)" opacity="0.6"></rect><path data-part="handle" fill="#438cff" d="M60 36H92V68H60Z"></path><path data-part="handle-surface" fill="#f4fbfa" d="M68 44H84V60H68Z"></path><path data-part="handle" fill="#438cff" d="M226 118A18 18 0 1 1 190 118A18 18 0 1 1 226 118Z"></path><path data-part="handle-surface" fill="#f4fbfa" d="M218 118A10 10 0 1 1 198 118A10 10 0 1 1 218 118Z"></path></svg>