<svg xmlns="http://www.w3.org/2000/svg" width="16" height="16" viewBox="28 28 228 228"><path id="pencil-body" data-part="body" fill="#55baac" fill-rule="evenodd" d="M76 52H144C186 52 208 80 208 118S186 184 144 184H116V222L96 248L76 222ZM116 92V144H140C157 144 168 134 168 118S157 92 140 92Z"></path><path data-part="upper" fill="#258e83" d="M76 52H116V92H76Z"></path><path data-part="middle" fill="#86d5c6" d="M76 92H116V144H76Z"></path><path data-part="lower" fill="#45afa0" d="M76 144H116V184H76Z"></path><path data-part="point" fill="#29978a" d="M76 184H116V222L96 248L76 222Z"></path><path data-part="handle" fill="#438cff" d="M54 30H98V74H54Z"></path><path data-part="handle-surface" fill="#f4fbfa" d="M64 40H88V64H64Z"></path><path data-part="handle" fill="#438cff" d="M235 118A27 27 0 1 1 181 118A27 27 0 1 1 235 118Z"></path><path data-part="handle-surface" fill="#f4fbfa" d="M225 118A17 17 0 1 1 191 118A17 17 0 1 1 225 118Z"></path></svg>